<mxfile host="app.diagrams.net" modified="2021-06-04T14:59:03.319Z" agent="5.0 (Windows NT 10.0; Win64; x64) AppleWebKit/537.36 (KHTML, like Gecko) Chrome/90.0.4430.212 Safari/537.36" etag="7yVFMF_k3VwfLMG9bUF_" version="14.7.0" type="github">
  <diagram id="C5RBs43oDa-KdzZeNtuy" name="Page-1">
    <mxGraphModel dx="1693" dy="522" grid="1" gridSize="10" guides="1" tooltips="1" connect="1" arrows="1" fold="1" page="1" pageScale="1" pageWidth="827" pageHeight="1169" math="0" shadow="0">
      <root>
        <mxCell id="WIyWlLk6GJQsqaUBKTNV-0" />
        <mxCell id="WIyWlLk6GJQsqaUBKTNV-1" parent="WIyWlLk6GJQsqaUBKTNV-0" />
        <mxCell id="n9F_COfFvGxQOisn9rhk-2" value="" style="edgeStyle=orthogonalEdgeStyle;rounded=0;orthogonalLoop=1;jettySize=auto;html=1;" edge="1" parent="WIyWlLk6GJQsqaUBKTNV-1" source="WIyWlLk6GJQsqaUBKTNV-3" target="n9F_COfFvGxQOisn9rhk-0">
          <mxGeometry relative="1" as="geometry" />
        </mxCell>
        <mxCell id="WIyWlLk6GJQsqaUBKTNV-3" value="START" style="rounded=1;whiteSpace=wrap;html=1;fontSize=12;glass=0;strokeWidth=1;shadow=0;" parent="WIyWlLk6GJQsqaUBKTNV-1" vertex="1">
          <mxGeometry x="160" y="80" width="120" height="40" as="geometry" />
        </mxCell>
        <mxCell id="n9F_COfFvGxQOisn9rhk-5" value="" style="edgeStyle=orthogonalEdgeStyle;rounded=0;orthogonalLoop=1;jettySize=auto;html=1;" edge="1" parent="WIyWlLk6GJQsqaUBKTNV-1" source="n9F_COfFvGxQOisn9rhk-0" target="n9F_COfFvGxQOisn9rhk-3">
          <mxGeometry relative="1" as="geometry" />
        </mxCell>
        <mxCell id="n9F_COfFvGxQOisn9rhk-0" value="adc read pin&amp;nbsp;&lt;br&gt;0,1 for left&lt;br&gt;joystick" style="shape=parallelogram;perimeter=parallelogramPerimeter;whiteSpace=wrap;html=1;fixedSize=1;" vertex="1" parent="WIyWlLk6GJQsqaUBKTNV-1">
          <mxGeometry x="160" y="160" width="120" height="60" as="geometry" />
        </mxCell>
        <mxCell id="n9F_COfFvGxQOisn9rhk-6" value="" style="edgeStyle=orthogonalEdgeStyle;rounded=0;orthogonalLoop=1;jettySize=auto;html=1;" edge="1" parent="WIyWlLk6GJQsqaUBKTNV-1" source="n9F_COfFvGxQOisn9rhk-3" target="n9F_COfFvGxQOisn9rhk-4">
          <mxGeometry relative="1" as="geometry" />
        </mxCell>
        <mxCell id="n9F_COfFvGxQOisn9rhk-3" value="sendDataByte1 = adc_read(0)*253/1023&lt;br&gt;sendDataByte2 = adc_read(1)*253/1023&lt;br&gt;send right joystick vert and hori scaled reading" style="whiteSpace=wrap;html=1;" vertex="1" parent="WIyWlLk6GJQsqaUBKTNV-1">
          <mxGeometry x="80" y="260" width="280" height="60" as="geometry" />
        </mxCell>
        <mxCell id="n9F_COfFvGxQOisn9rhk-8" value="" style="edgeStyle=orthogonalEdgeStyle;rounded=0;orthogonalLoop=1;jettySize=auto;html=1;" edge="1" parent="WIyWlLk6GJQsqaUBKTNV-1" source="n9F_COfFvGxQOisn9rhk-4" target="n9F_COfFvGxQOisn9rhk-7">
          <mxGeometry relative="1" as="geometry" />
        </mxCell>
        <mxCell id="n9F_COfFvGxQOisn9rhk-4" value="initialise timer 1&lt;br&gt;registers&amp;nbsp;in robot,&lt;br&gt;port B to output mode" style="shape=parallelogram;perimeter=parallelogramPerimeter;whiteSpace=wrap;html=1;fixedSize=1;" vertex="1" parent="WIyWlLk6GJQsqaUBKTNV-1">
          <mxGeometry x="140" y="360" width="160" height="60" as="geometry" />
        </mxCell>
        <mxCell id="n9F_COfFvGxQOisn9rhk-10" value="" style="edgeStyle=orthogonalEdgeStyle;rounded=0;orthogonalLoop=1;jettySize=auto;html=1;" edge="1" parent="WIyWlLk6GJQsqaUBKTNV-1" source="n9F_COfFvGxQOisn9rhk-7" target="n9F_COfFvGxQOisn9rhk-9">
          <mxGeometry relative="1" as="geometry" />
        </mxCell>
        <mxCell id="n9F_COfFvGxQOisn9rhk-39" style="edgeStyle=orthogonalEdgeStyle;rounded=0;orthogonalLoop=1;jettySize=auto;html=1;" edge="1" parent="WIyWlLk6GJQsqaUBKTNV-1" source="n9F_COfFvGxQOisn9rhk-7" target="n9F_COfFvGxQOisn9rhk-21">
          <mxGeometry relative="1" as="geometry" />
        </mxCell>
        <mxCell id="n9F_COfFvGxQOisn9rhk-7" value="motor controls for left and right motor,&lt;br&gt;OCR1B = leftMotor*OCR1A/126&lt;br&gt;OCR1C =rightMotor*OCR1A/126&lt;br&gt;speed of motor is magnitude of recDataByte" style="whiteSpace=wrap;html=1;" vertex="1" parent="WIyWlLk6GJQsqaUBKTNV-1">
          <mxGeometry x="90" y="460" width="260" height="70" as="geometry" />
        </mxCell>
        <mxCell id="n9F_COfFvGxQOisn9rhk-12" style="edgeStyle=orthogonalEdgeStyle;rounded=0;orthogonalLoop=1;jettySize=auto;html=1;" edge="1" parent="WIyWlLk6GJQsqaUBKTNV-1" source="n9F_COfFvGxQOisn9rhk-9">
          <mxGeometry relative="1" as="geometry">
            <mxPoint x="150" y="690" as="targetPoint" />
          </mxGeometry>
        </mxCell>
        <mxCell id="n9F_COfFvGxQOisn9rhk-13" style="edgeStyle=orthogonalEdgeStyle;rounded=0;orthogonalLoop=1;jettySize=auto;html=1;" edge="1" parent="WIyWlLk6GJQsqaUBKTNV-1" source="n9F_COfFvGxQOisn9rhk-9">
          <mxGeometry relative="1" as="geometry">
            <mxPoint x="-110" y="690" as="targetPoint" />
          </mxGeometry>
        </mxCell>
        <mxCell id="n9F_COfFvGxQOisn9rhk-9" value="if leftMotor &amp;gt;= 0" style="rhombus;whiteSpace=wrap;html=1;" vertex="1" parent="WIyWlLk6GJQsqaUBKTNV-1">
          <mxGeometry x="-50" y="580" width="140" height="90" as="geometry" />
        </mxCell>
        <mxCell id="n9F_COfFvGxQOisn9rhk-14" value="YES" style="text;html=1;strokeColor=none;fillColor=none;align=center;verticalAlign=middle;whiteSpace=wrap;rounded=0;" vertex="1" parent="WIyWlLk6GJQsqaUBKTNV-1">
          <mxGeometry x="-110" y="605" width="40" height="20" as="geometry" />
        </mxCell>
        <mxCell id="n9F_COfFvGxQOisn9rhk-15" value="NO" style="text;html=1;strokeColor=none;fillColor=none;align=center;verticalAlign=middle;whiteSpace=wrap;rounded=0;" vertex="1" parent="WIyWlLk6GJQsqaUBKTNV-1">
          <mxGeometry x="120" y="605" width="40" height="20" as="geometry" />
        </mxCell>
        <mxCell id="n9F_COfFvGxQOisn9rhk-28" style="edgeStyle=orthogonalEdgeStyle;rounded=0;orthogonalLoop=1;jettySize=auto;html=1;" edge="1" parent="WIyWlLk6GJQsqaUBKTNV-1" source="n9F_COfFvGxQOisn9rhk-17">
          <mxGeometry relative="1" as="geometry">
            <mxPoint x="-110" y="790" as="targetPoint" />
          </mxGeometry>
        </mxCell>
        <mxCell id="n9F_COfFvGxQOisn9rhk-17" value="set direction forwards&lt;br&gt;PortC,Pin0 on&lt;br&gt;PortC,Pin1 off" style="rounded=0;whiteSpace=wrap;html=1;" vertex="1" parent="WIyWlLk6GJQsqaUBKTNV-1">
          <mxGeometry x="-170" y="690" width="120" height="60" as="geometry" />
        </mxCell>
        <mxCell id="n9F_COfFvGxQOisn9rhk-27" style="edgeStyle=orthogonalEdgeStyle;rounded=0;orthogonalLoop=1;jettySize=auto;html=1;" edge="1" parent="WIyWlLk6GJQsqaUBKTNV-1" source="n9F_COfFvGxQOisn9rhk-18">
          <mxGeometry relative="1" as="geometry">
            <mxPoint x="150" y="790" as="targetPoint" />
          </mxGeometry>
        </mxCell>
        <mxCell id="n9F_COfFvGxQOisn9rhk-18" value="set direction reverse&lt;br&gt;PortC,Pin0 off&lt;br&gt;PortC,Pin1 on" style="rounded=0;whiteSpace=wrap;html=1;" vertex="1" parent="WIyWlLk6GJQsqaUBKTNV-1">
          <mxGeometry x="90" y="690" width="120" height="60" as="geometry" />
        </mxCell>
        <mxCell id="n9F_COfFvGxQOisn9rhk-19" style="edgeStyle=orthogonalEdgeStyle;rounded=0;orthogonalLoop=1;jettySize=auto;html=1;" edge="1" parent="WIyWlLk6GJQsqaUBKTNV-1" source="n9F_COfFvGxQOisn9rhk-21">
          <mxGeometry relative="1" as="geometry">
            <mxPoint x="544" y="690" as="targetPoint" />
          </mxGeometry>
        </mxCell>
        <mxCell id="n9F_COfFvGxQOisn9rhk-20" style="edgeStyle=orthogonalEdgeStyle;rounded=0;orthogonalLoop=1;jettySize=auto;html=1;" edge="1" parent="WIyWlLk6GJQsqaUBKTNV-1" source="n9F_COfFvGxQOisn9rhk-21">
          <mxGeometry relative="1" as="geometry">
            <mxPoint x="284" y="690" as="targetPoint" />
          </mxGeometry>
        </mxCell>
        <mxCell id="n9F_COfFvGxQOisn9rhk-21" value="if rightMotor &amp;gt;= 0" style="rhombus;whiteSpace=wrap;html=1;" vertex="1" parent="WIyWlLk6GJQsqaUBKTNV-1">
          <mxGeometry x="344" y="580" width="140" height="90" as="geometry" />
        </mxCell>
        <mxCell id="n9F_COfFvGxQOisn9rhk-22" value="YES" style="text;html=1;strokeColor=none;fillColor=none;align=center;verticalAlign=middle;whiteSpace=wrap;rounded=0;" vertex="1" parent="WIyWlLk6GJQsqaUBKTNV-1">
          <mxGeometry x="284" y="605" width="40" height="20" as="geometry" />
        </mxCell>
        <mxCell id="n9F_COfFvGxQOisn9rhk-23" value="NO" style="text;html=1;strokeColor=none;fillColor=none;align=center;verticalAlign=middle;whiteSpace=wrap;rounded=0;" vertex="1" parent="WIyWlLk6GJQsqaUBKTNV-1">
          <mxGeometry x="514" y="605" width="40" height="20" as="geometry" />
        </mxCell>
        <mxCell id="n9F_COfFvGxQOisn9rhk-31" style="edgeStyle=orthogonalEdgeStyle;rounded=0;orthogonalLoop=1;jettySize=auto;html=1;" edge="1" parent="WIyWlLk6GJQsqaUBKTNV-1" source="n9F_COfFvGxQOisn9rhk-24">
          <mxGeometry relative="1" as="geometry">
            <mxPoint x="284" y="790" as="targetPoint" />
          </mxGeometry>
        </mxCell>
        <mxCell id="n9F_COfFvGxQOisn9rhk-24" value="set direction forwards&lt;br&gt;PortC,Pin2 on&lt;br&gt;PortC,Pin3 off" style="rounded=0;whiteSpace=wrap;html=1;" vertex="1" parent="WIyWlLk6GJQsqaUBKTNV-1">
          <mxGeometry x="224" y="690" width="120" height="60" as="geometry" />
        </mxCell>
        <mxCell id="n9F_COfFvGxQOisn9rhk-32" style="edgeStyle=orthogonalEdgeStyle;rounded=0;orthogonalLoop=1;jettySize=auto;html=1;" edge="1" parent="WIyWlLk6GJQsqaUBKTNV-1" source="n9F_COfFvGxQOisn9rhk-25">
          <mxGeometry relative="1" as="geometry">
            <mxPoint x="544" y="790" as="targetPoint" />
          </mxGeometry>
        </mxCell>
        <mxCell id="n9F_COfFvGxQOisn9rhk-25" value="set direction reverse&lt;br&gt;PortC,Pin2 off&lt;br&gt;PortC,Pin3 on" style="rounded=0;whiteSpace=wrap;html=1;" vertex="1" parent="WIyWlLk6GJQsqaUBKTNV-1">
          <mxGeometry x="484" y="690" width="120" height="60" as="geometry" />
        </mxCell>
        <mxCell id="n9F_COfFvGxQOisn9rhk-26" value="" style="endArrow=none;html=1;" edge="1" parent="WIyWlLk6GJQsqaUBKTNV-1">
          <mxGeometry width="50" height="50" relative="1" as="geometry">
            <mxPoint x="-110" y="790" as="sourcePoint" />
            <mxPoint x="150" y="790" as="targetPoint" />
          </mxGeometry>
        </mxCell>
        <mxCell id="n9F_COfFvGxQOisn9rhk-30" value="" style="endArrow=none;html=1;" edge="1" parent="WIyWlLk6GJQsqaUBKTNV-1">
          <mxGeometry width="50" height="50" relative="1" as="geometry">
            <mxPoint x="284" y="790" as="sourcePoint" />
            <mxPoint x="544" y="790" as="targetPoint" />
          </mxGeometry>
        </mxCell>
        <mxCell id="n9F_COfFvGxQOisn9rhk-34" value="" style="endArrow=none;html=1;" edge="1" parent="WIyWlLk6GJQsqaUBKTNV-1">
          <mxGeometry width="50" height="50" relative="1" as="geometry">
            <mxPoint x="413.5" y="790" as="sourcePoint" />
            <mxPoint x="413.5" y="820" as="targetPoint" />
          </mxGeometry>
        </mxCell>
        <mxCell id="n9F_COfFvGxQOisn9rhk-35" value="" style="endArrow=none;html=1;" edge="1" parent="WIyWlLk6GJQsqaUBKTNV-1">
          <mxGeometry width="50" height="50" relative="1" as="geometry">
            <mxPoint x="20" y="820" as="sourcePoint" />
            <mxPoint x="414" y="820" as="targetPoint" />
          </mxGeometry>
        </mxCell>
        <mxCell id="n9F_COfFvGxQOisn9rhk-36" value="" style="endArrow=none;html=1;" edge="1" parent="WIyWlLk6GJQsqaUBKTNV-1">
          <mxGeometry width="50" height="50" relative="1" as="geometry">
            <mxPoint x="630" y="860" as="sourcePoint" />
            <mxPoint x="630" y="140" as="targetPoint" />
          </mxGeometry>
        </mxCell>
        <mxCell id="n9F_COfFvGxQOisn9rhk-37" value="" style="endArrow=classic;html=1;" edge="1" parent="WIyWlLk6GJQsqaUBKTNV-1">
          <mxGeometry width="50" height="50" relative="1" as="geometry">
            <mxPoint x="630" y="140" as="sourcePoint" />
            <mxPoint x="220" y="140" as="targetPoint" />
          </mxGeometry>
        </mxCell>
        <mxCell id="n9F_COfFvGxQOisn9rhk-40" value="" style="endArrow=none;html=1;" edge="1" parent="WIyWlLk6GJQsqaUBKTNV-1">
          <mxGeometry width="50" height="50" relative="1" as="geometry">
            <mxPoint x="19.5" y="820" as="sourcePoint" />
            <mxPoint x="19.5" y="790" as="targetPoint" />
          </mxGeometry>
        </mxCell>
        <mxCell id="n9F_COfFvGxQOisn9rhk-41" value="" style="endArrow=none;html=1;" edge="1" parent="WIyWlLk6GJQsqaUBKTNV-1">
          <mxGeometry width="50" height="50" relative="1" as="geometry">
            <mxPoint x="220" y="820" as="sourcePoint" />
            <mxPoint x="220" y="860" as="targetPoint" />
          </mxGeometry>
        </mxCell>
        <mxCell id="n9F_COfFvGxQOisn9rhk-42" value="" style="endArrow=none;html=1;" edge="1" parent="WIyWlLk6GJQsqaUBKTNV-1">
          <mxGeometry width="50" height="50" relative="1" as="geometry">
            <mxPoint x="220" y="860" as="sourcePoint" />
            <mxPoint x="630" y="860" as="targetPoint" />
          </mxGeometry>
        </mxCell>
      </root>
    </mxGraphModel>
  </diagram>
</mxfile>
